<?xml version="1.0" encoding="utf-8"?>
<!-- Generator: Adobe Illustrator 24.0.2, SVG Export Plug-In . SVG Version: 6.00 Build 0)  -->
<svg version="1.1" id="Layer_1" xmlns="http://www.w3.org/2000/svg" xmlns:xlink="http://www.w3.org/1999/xlink" x="0px" y="0px"
	 viewBox="0 0 360 361" style="enable-background:new 0 0 360 361;" xml:space="preserve">
<style type="text/css">
	.st0{clip-path:url(#SVGID_2_);}
	.st1{clip-path:url(#SVGID_5_);}
	.st2{opacity:0.88;fill:#FFFFFF;}
	.st3{fill:none;stroke:#FFFFFF;stroke-width:2;}
	.st4{fill-rule:evenodd;clip-rule:evenodd;fill:#333333;}
	.st5{fill-rule:evenodd;clip-rule:evenodd;fill:#E65025;}
</style>
<g>
	<g>
		<defs>
			<polygon id="SVGID_1_" points="137.3,78 222.8,78 283.4,138.4 283.4,223.9 223,284.5 137.4,284.5 76.9,224.1 76.9,138.6 			"/>
		</defs>
		<clipPath id="SVGID_2_">
			<use xlink:href="#SVGID_1_"  style="overflow:visible;"/>
		</clipPath>
		<g class="st0">
			<g>
				<defs>
					<polygon id="SVGID_3_" points="72.9,74 73.9,74 72.9,75 					"/>
				</defs>
				<defs>
					<polygon id="SVGID_4_" points="70.9,72 69.9,72 70.9,71 					"/>
				</defs>
				<clipPath id="SVGID_5_">
					<use xlink:href="#SVGID_3_"  style="overflow:visible;"/>
				</clipPath>
				<clipPath id="SVGID_6_" class="st1">
					<use xlink:href="#SVGID_4_"  style="overflow:visible;"/>
				</clipPath>
			</g>
		</g>
	</g>
</g>
<polygon class="st2" points="222.9,78 137.4,78 76.9,138.5 76.9,224 137.4,284.5 222.9,284.5 283.4,224 283.4,138.5 "/>
<path class="st3" d="M232,54.6l73.7,73.6l0.1,104.2L232.2,306L128,306.1l-73.7-73.6l-0.1-104.2l73.6-73.7L232,54.6z"/>
<path class="st4" d="M202.2,131.3h-9.9l-0.3,0.9c-1,3.7-1.6,7.6-1.6,11.5h6.7l23.3,23.3v33L203,217.4c-0.7,2.5-1.6,4.9-2.7,7.2
	c-2,4.1-4.6,7.8-7.7,11.1h9.6l30.5-30.6v-43.2L202.2,131.3z"/>
<path class="st4" d="M167.7,223.4h-3.4L140.9,200v-33l14.7-14.8c0.5-3.3,1.3-6.6,2.5-9.8c1.5-3.9,3.4-7.7,5.8-11.1h-4.9l-30.5,30.6
	v43.2l30.5,30.6h2.8c1.1-1.5,2-3.1,2.9-4.7C166.1,228.6,167,226,167.7,223.4L167.7,223.4z"/>
<path class="st5" d="M197.6,201c0-0.6-0.1-1.2-0.2-1.9l-0.2-1.6c-0.1-0.6-0.2-1.2-0.3-1.7c-0.1-0.6-0.3-1.3-0.4-2l-0.3-1.4
	c-0.1-0.6-0.3-1.1-0.4-1.7l-0.8-2.7c-0.3-0.9-0.5-1.7-0.8-2.4l-2-5c-2.3-5.3-4.3-10.8-5.9-16.3c-0.7-2.4-1.3-5-1.9-8.3
	c-0.5-2.8-0.8-5.6-0.9-8.4c0-1.4,0-2.8,0-4.2c0.1-4.2,0.6-8.3,1.7-12.3c0.1-0.3,0.2-0.7,0.3-1c1-3.7,2.4-7.2,4-10.6
	c-1,0.4-2.1,0.9-3.2,1.4c-3.4,1.7-6.6,3.8-9.4,6.3c-1.4,1.2-2.7,2.5-3.9,3.9c-3.2,3.6-5.8,7.8-7.7,12.3c-0.2,0.4-0.3,0.8-0.5,1.2
	c-1.2,3.2-2,6.6-2.4,10c-0.4,3.4-0.4,6.8-0.1,10.2c0.7,7,2.5,13.8,5.3,20.1l1.8,4.1c0.4,0.9,0.7,1.7,1,2.6c0.2,0.5,0.4,1,0.6,1.4
	c0.3,0.8,0.6,1.6,0.9,2.4c0.2,0.5,0.3,1.1,0.6,1.6l0.1,0.3l1.1,3.9c1.6,6.1,2.2,11.4,2,16.3c-0.1,1.9-0.3,3.9-0.7,5.8
	c-0.7,3.8-2,7.4-3.8,10.9c-0.3,0.5-0.5,1-0.8,1.5c-1.3,2.4-2.9,4.6-4.5,6.7c-0.3,0.3-0.5,0.7-0.8,1c1-0.2,2-0.5,3-0.8
	c3.9-1.1,7.6-2.7,11-4.8c1.1-0.7,2.2-1.4,3.3-2.2c4.5-3.3,8.3-7.5,11-12.4c0.3-0.6,0.7-1.2,0.9-1.8C197,215.5,198.2,208.6,197.6,201
	L197.6,201z"/>
</svg>
