<?xml version="1.0" encoding="utf-8"?>
<!-- Generator: Adobe Illustrator 24.0.2, SVG Export Plug-In . SVG Version: 6.00 Build 0)  -->
<svg version="1.1" id="Layer_1" xmlns="http://www.w3.org/2000/svg" xmlns:xlink="http://www.w3.org/1999/xlink" x="0px" y="0px"
	 viewBox="0 0 174.8 206.9" style="enable-background:new 0 0 174.8 206.9;" xml:space="preserve">
<style type="text/css">
	.st0{fill-rule:evenodd;clip-rule:evenodd;fill:#333333;}
	.st1{fill-rule:evenodd;clip-rule:evenodd;fill:#E65025;}
</style>
<title>octagonspine-logo</title>
<g id="Layer_2_1_">
	<g id="Layer_1-2">
		<path class="st0" d="M123.6,19.4H107l-0.4,1.5c-1.7,6.3-2.6,12.7-2.8,19.2H115l39.1,39v55.2l-29.1,29c-1.2,4.2-2.7,8.2-4.6,12.1
			c-3.3,6.8-7.7,13.1-12.9,18.6h16.1l51.2-51.1V70.5L123.6,19.4z"/>
		<path class="st0" d="M65.6,173.3h-5.8l-39.1-39V79.1l24.8-24.7c0.9-5.6,2.3-11.1,4.2-16.4c2.5-6.6,5.7-12.8,9.8-18.6h-8.1L0,70.5
			v72.3L51.3,194H56c1.8-2.5,3.4-5.2,4.8-7.9C63,182.1,64.6,177.8,65.6,173.3L65.6,173.3z"/>
		<path class="st1" d="M115.9,135.9c-0.1-1-0.2-2.1-0.3-3.1l-0.4-2.7c-0.1-1-0.3-2-0.5-2.9s-0.4-2.2-0.7-3.3l-0.5-2.3
			c-0.2-0.9-0.4-1.9-0.7-2.8l-1.4-4.5c-0.5-1.5-0.9-2.8-1.4-4l-3.3-8.3c-3.9-8.9-7.3-18-9.9-27.3c-1.2-4-2.1-8.3-3.2-13.8
			c-0.8-4.6-1.3-9.3-1.6-14C92,44.6,92,42.3,92,40c0.1-7,1.1-13.9,2.8-20.6c0.1-0.5,0.3-1.1,0.4-1.6c1.7-6.1,4-12,6.8-17.7
			c-1.8,0.7-3.6,1.5-5.4,2.4c-5.7,2.8-11,6.3-15.9,10.5c-2.3,2-4.5,4.2-6.6,6.5c-5.5,6.1-9.8,13.1-12.9,20.6
			c-0.3,0.7-0.6,1.3-0.8,1.9c-1.9,5.4-3.3,11-4,16.7c-0.6,5.6-0.7,11.3-0.2,17c1.1,11.6,4.1,23,8.9,33.7l3,6.9
			c0.7,1.5,1.2,2.9,1.8,4.3c0.3,0.8,0.6,1.6,0.9,2.4c0.6,1.4,1,2.7,1.4,4c0.3,0.9,0.6,1.8,0.9,2.7l0.2,0.4l1.9,6.4
			c2.7,10.1,3.7,19,3.3,27.2c-0.2,3.2-0.6,6.4-1.2,9.6c-1.2,6.3-3.4,12.4-6.4,18.1c-0.4,0.8-0.9,1.7-1.4,2.5
			c-2.2,3.9-4.8,7.7-7.6,11.2c-0.5,0.6-0.9,1.1-1.4,1.6c1.6-0.4,3.3-0.8,5.1-1.3c6.5-1.9,12.7-4.6,18.5-8c1.9-1.1,3.7-2.4,5.5-3.6
			c7.6-5.5,13.9-12.5,18.5-20.7c0.5-1,1.1-2,1.6-3C115,160.2,117,148.6,115.9,135.9L115.9,135.9z"/>
	</g>
</g>
</svg>
