<svg width="59" height="70" viewBox="0 0 59 70" fill="none" xmlns="http://www.w3.org/2000/svg">
<path fill-rule="evenodd" clip-rule="evenodd" d="M41.6415 6.56419H36.046L35.8944 7.0582C35.3213 9.17741 35.009 11.3592 34.9646 13.5547H38.741L51.913 26.7508V45.4418L42.1098 55.2543C41.7215 56.6615 41.2073 58.0307 40.5736 59.345C39.4576 61.6593 37.9879 63.784 36.2178 65.6419H41.6348L58.8931 48.3382V23.8679L41.6415 6.56419Z" fill="white"/>
<path fill-rule="evenodd" clip-rule="evenodd" d="M22.1127 58.6514H20.1622L6.97676 45.4553V26.7609L15.3145 18.4102C15.6055 16.5183 16.077 14.6589 16.7227 12.8577C17.5502 10.6278 18.6573 8.51287 20.0174 6.56419H17.2718L0 23.8679V48.3382L17.2718 65.6419H18.8652C19.4659 64.7844 20.0116 63.8893 20.4991 62.9621C21.2167 61.6001 21.7579 60.1514 22.1094 58.6514H22.1127Z" fill="white"/>
<path fill-rule="evenodd" clip-rule="evenodd" d="M39.0577 45.9899C39.0403 45.6386 39.0043 45.2885 38.9499 44.941L38.8253 44.041C38.7781 43.7026 38.7343 43.3643 38.6703 43.053C38.6063 42.7417 38.5187 42.3221 38.4278 41.9398L38.2526 41.1751C38.1785 40.857 38.1111 40.5423 38.01 40.2378L37.535 38.7084C37.3733 38.1907 37.2318 37.7678 37.0769 37.355L35.9483 34.5466C34.6191 31.5473 33.5035 28.4571 32.6099 25.2992C32.2191 23.9458 31.8889 22.4874 31.5419 20.6298C31.2816 19.0614 31.105 17.4802 31.013 15.8928C30.9928 15.0841 30.9928 14.3059 30.9928 13.5344C31.0422 11.177 31.3587 8.83282 31.9361 6.54727C31.9833 6.36456 32.0271 6.17508 32.0776 5.99236C32.6434 3.92516 33.4084 1.91824 34.3616 0C33.7687 0.240236 33.1657 0.510924 32.5458 0.815449C30.6258 1.76975 28.8311 2.95972 27.2029 4.35808C26.4154 5.03749 25.6737 5.76884 24.9829 6.54727C23.1441 8.60728 21.6739 10.9712 20.6372 13.5344C20.5462 13.7544 20.4485 13.9675 20.3677 14.1875C19.7108 16.0183 19.2588 17.9169 19.0202 19.8482C18.8021 21.7583 18.7818 23.686 18.9595 25.6003C19.3425 29.5351 20.3549 33.3821 21.9577 36.9929L22.9684 39.3412C23.2076 39.8487 23.3861 40.3258 23.5579 40.7893C23.659 41.0634 23.76 41.3375 23.8746 41.6082C24.0599 42.0683 24.2115 42.5116 24.3597 42.9616C24.4574 43.2661 24.5551 43.5639 24.673 43.865L24.7235 44.0173L25.367 46.1997C26.2597 49.6341 26.6201 52.6286 26.4921 55.3964C26.4324 56.4891 26.2995 57.5765 26.0946 58.6514C25.6865 60.794 24.9633 62.8638 23.9487 64.7926C23.7971 65.0769 23.6421 65.3611 23.4804 65.6453C22.7234 66.9748 21.8675 68.245 20.9202 69.4451C20.7686 69.6346 20.617 69.8207 20.462 70C21.0145 69.8782 21.5827 69.735 22.1666 69.5703C24.3543 68.9373 26.453 68.0277 28.4123 66.8634C29.0524 66.4844 29.6655 66.0649 30.2618 65.6284C32.8235 63.7789 34.9545 61.3926 36.5075 58.6345C36.6895 58.2961 36.8781 57.9578 37.0398 57.6194C38.7242 54.1952 39.398 50.2837 39.0611 45.9764L39.0577 45.9899Z" fill="white"/>
</svg>
