<svg width="221" height="77" viewBox="0 0 221 77" fill="none" xmlns="http://www.w3.org/2000/svg">
<path fill-rule="evenodd" clip-rule="evenodd" d="M41.4284 6.53059H35.8615L35.7107 7.02207C35.1405 9.13042 34.8299 11.301 34.7856 13.4853H38.5427L51.6472 26.6138V45.2091L41.8942 54.9713C41.5079 56.3713 40.9964 57.7335 40.3659 59.0411C39.2556 61.3435 37.7934 63.4573 36.0324 65.3057H41.4217L58.5915 48.0906V23.7457L41.4284 6.53059Z" fill="white"/>
<path fill-rule="evenodd" clip-rule="evenodd" d="M21.9994 58.351H20.0589L6.94101 45.2225V26.6239L15.236 18.3159C15.5255 16.4337 15.9947 14.5838 16.637 12.7919C17.4602 10.5733 18.5617 8.46929 19.9148 6.53059H17.1833L0 23.7457V48.0906L17.1833 65.3057H18.7685C19.3662 64.4526 19.9091 63.5621 20.394 62.6396C21.108 61.2846 21.6464 59.8433 21.9961 58.351H21.9994Z" fill="white"/>
<path fill-rule="evenodd" clip-rule="evenodd" d="M38.8579 45.7544C38.8406 45.4049 38.8048 45.0565 38.7507 44.7108L38.6267 43.8154C38.5797 43.4788 38.5362 43.1421 38.4725 42.8324C38.4088 42.5227 38.3217 42.1053 38.2312 41.7249L38.0569 40.9642C37.9832 40.6477 37.9161 40.3347 37.8156 40.0317L37.343 38.5101C37.1821 37.9951 37.0414 37.5743 36.8872 37.1636L35.7644 34.3696C34.442 31.3857 33.3321 28.3113 32.4431 25.1696C32.0543 23.8231 31.7259 22.3722 31.3807 20.5242C31.1216 18.9638 30.946 17.3906 30.8545 15.8114C30.8344 15.0068 30.8344 14.2326 30.8344 13.4651C30.8835 11.1197 31.1983 8.78756 31.7728 6.51373C31.8197 6.33195 31.8633 6.14344 31.9135 5.96166C32.4765 3.90505 33.2375 1.9084 34.1859 -7.62939e-06C33.596 0.238998 32.9961 0.5083 32.3794 0.811264C30.4692 1.76068 28.6837 2.94456 27.0639 4.33575C26.2803 5.01168 25.5425 5.73929 24.8552 6.51373C23.0259 8.56319 21.5632 10.915 20.5318 13.4651C20.4413 13.6839 20.3441 13.896 20.2636 14.1148C19.6101 15.9363 19.1605 17.8251 18.923 19.7465C18.7061 21.6469 18.6859 23.5647 18.8627 25.4692C19.2437 29.3838 20.2509 33.2111 21.8456 36.8034L22.851 39.1396C23.089 39.6446 23.2666 40.1192 23.4375 40.5804C23.5381 40.8531 23.6386 41.1257 23.7526 41.395C23.9369 41.8529 24.0877 42.2938 24.2352 42.7416C24.3324 43.0445 24.4296 43.3407 24.5469 43.6403L24.5972 43.7918L25.2373 45.9631C26.1255 49.3798 26.4841 52.359 26.3567 55.1126C26.2972 56.1997 26.1651 57.2816 25.9612 58.351C25.5552 60.4826 24.8357 62.5418 23.8263 64.4607C23.6755 64.7435 23.5213 65.0263 23.3605 65.309C22.6073 66.6317 21.7558 67.8954 20.8133 69.0894C20.6625 69.2779 20.5117 69.463 20.3575 69.6414C20.9071 69.5202 21.4724 69.3777 22.0534 69.2139C24.2298 68.5842 26.3178 67.6793 28.2671 66.5209C28.9039 66.1439 29.5139 65.7265 30.1071 65.2922C32.6556 63.4522 34.7757 61.0781 36.3208 58.3341C36.5018 57.9975 36.6895 57.6609 36.8503 57.3242C38.5261 53.9176 39.1964 50.0262 38.8613 45.7409L38.8579 45.7544Z" fill="white"/>
<path fill-rule="evenodd" clip-rule="evenodd" d="M71.4746 41.7788H88.3797V46.7003H71.4746C70.1051 46.6976 68.7922 46.1505 67.8232 45.1784C66.8541 44.2063 66.3076 42.8885 66.3032 41.5129V30.0945C66.3077 28.7192 66.8542 27.4017 67.8234 26.4301C68.7925 25.4586 70.1054 24.9122 71.4746 24.9104H88.3026V29.8285H71.4746C71.4139 29.8208 71.3525 29.8373 71.3037 29.8744C71.2548 29.9115 71.2223 29.9663 71.2132 30.0271C71.2099 30.0495 71.2099 30.0722 71.2132 30.0945V41.5129C71.2054 41.5738 71.2212 41.6354 71.2574 41.6849C71.2936 41.7344 71.3474 41.7681 71.4076 41.7788C71.4298 41.7822 71.4524 41.7822 71.4746 41.7788Z" fill="white"/>
<path fill-rule="evenodd" clip-rule="evenodd" d="M108.254 29.8285H99.788V41.5128C99.7832 41.5431 99.7845 41.5741 99.7917 41.6039C99.7989 41.6337 99.8119 41.6617 99.83 41.6865C99.8481 41.7112 99.8708 41.7321 99.897 41.7479C99.9231 41.7637 99.9522 41.7742 99.9824 41.7787C100.005 41.7821 100.027 41.7821 100.049 41.7787H108.254V46.7002H100.056C99.3809 46.7047 98.7115 46.5755 98.0861 46.3201C97.4606 46.0647 96.8914 45.688 96.4108 45.2116C95.9303 44.7352 95.5479 44.1684 95.2855 43.5436C95.0231 42.9188 94.8857 42.2482 94.8813 41.57V17.7705H99.7913V24.9104H108.254V29.8285Z" fill="white"/>
<path fill-rule="evenodd" clip-rule="evenodd" d="M131.138 24.9104C132.508 24.9113 133.822 25.4573 134.791 26.429C135.761 27.4006 136.308 28.7186 136.313 30.0945V46.7003H119.411C118.042 46.6976 116.729 46.1505 115.76 45.1784C114.791 44.2063 114.244 42.8885 114.24 41.5129V33.3261H131.403V30.0945C131.411 30.0326 131.394 29.9701 131.356 29.9204C131.319 29.8707 131.263 29.8377 131.202 29.8285C131.181 29.8252 131.159 29.8252 131.138 29.8285H114.236V24.9104H131.138ZM131.403 41.7822V38.288H119.14V41.5196C119.132 41.5811 119.149 41.6432 119.186 41.6924C119.224 41.7415 119.28 41.7738 119.341 41.7822H131.406H131.403Z" fill="white"/>
<path fill-rule="evenodd" clip-rule="evenodd" d="M164.359 50.2348C164.37 50.9175 164.242 51.5952 163.985 52.227C163.727 52.8588 163.345 53.4316 162.861 53.9108C162.393 54.4022 161.829 54.791 161.204 55.0529C160.58 55.3147 159.908 55.4439 159.231 55.4324H145.916V50.4604H159.221C159.247 50.4647 159.273 50.4637 159.299 50.4575C159.324 50.4512 159.348 50.4399 159.369 50.4242C159.39 50.4085 159.408 50.3887 159.421 50.366C159.434 50.3433 159.442 50.3181 159.446 50.2921C159.449 50.2731 159.449 50.2538 159.446 50.2348V46.7676H147.467C146.095 46.7649 144.781 46.2159 143.811 45.2409C142.842 44.2659 142.297 42.9446 142.296 41.5667V30.1214C142.295 28.742 142.839 27.4186 143.809 26.4416C144.778 25.4646 146.094 24.9139 147.467 24.9104H159.234C159.912 24.9 160.584 25.0297 161.209 25.2915C161.834 25.5532 162.398 25.9414 162.868 26.4319C163.352 26.9111 163.734 27.4839 163.992 28.1157C164.249 28.7476 164.376 29.4253 164.366 30.1079L164.359 50.2348ZM147.457 41.8192H159.228C159.379 41.8192 159.449 41.7283 159.449 41.5532V30.1079C159.449 29.9295 159.375 29.842 159.228 29.842H147.467C147.437 29.8372 147.406 29.8386 147.377 29.8461C147.347 29.8536 147.319 29.867 147.295 29.8856C147.27 29.9041 147.25 29.9274 147.235 29.954C147.219 29.9806 147.21 30.0101 147.206 30.0406C147.203 30.0629 147.203 30.0856 147.206 30.1079V41.5532C147.201 41.5835 147.202 41.6145 147.21 41.6443C147.217 41.6741 147.23 41.7022 147.248 41.7269C147.266 41.7516 147.289 41.7725 147.315 41.7883C147.341 41.8042 147.37 41.8146 147.4 41.8192C147.422 41.8225 147.445 41.8225 147.467 41.8192H147.457Z" fill="white"/>
<path fill-rule="evenodd" clip-rule="evenodd" d="M175.579 24.9104H187.31C188.68 24.9104 189.994 25.4562 190.964 26.428C191.934 27.3998 192.481 28.7183 192.484 30.0945V41.5129C192.481 42.8887 191.935 44.2071 190.965 45.1794C189.996 46.1516 188.683 46.6985 187.313 46.7003H175.583C174.213 46.6985 172.899 46.1516 171.93 45.1794C170.961 44.2071 170.415 42.8887 170.411 41.5129V30.0945C170.416 28.7198 170.962 27.4028 171.93 26.4313C172.899 25.4599 174.211 24.9131 175.579 24.9104ZM187.31 29.8319H175.579C175.518 29.8242 175.457 29.8406 175.408 29.8777C175.359 29.9149 175.327 29.9697 175.318 30.0305C175.314 30.0528 175.314 30.0755 175.318 30.0978V41.5162C175.31 41.5777 175.326 41.6397 175.363 41.6893C175.4 41.7389 175.455 41.7722 175.516 41.7822C175.537 41.7855 175.558 41.7855 175.579 41.7822H187.31C187.34 41.7864 187.37 41.7847 187.4 41.777C187.429 41.7693 187.457 41.7559 187.481 41.7374C187.506 41.719 187.526 41.6959 187.541 41.6695C187.557 41.6431 187.567 41.6139 187.571 41.5836C187.574 41.5612 187.574 41.5386 187.571 41.5162V30.0945C187.58 30.0334 187.564 29.9714 187.528 29.9216C187.491 29.8719 187.437 29.8385 187.377 29.8285C187.354 29.8252 187.332 29.8252 187.31 29.8285V29.8319Z" fill="white"/>
<path fill-rule="evenodd" clip-rule="evenodd" d="M215.359 24.9104C216.729 24.9122 218.041 25.4586 219.01 26.4301C219.98 27.4017 220.526 28.7192 220.531 30.0945V46.7003H215.621V30.0945C215.625 30.0642 215.624 30.0332 215.617 30.0034C215.61 29.9736 215.597 29.9455 215.579 29.9208C215.561 29.8961 215.538 29.8752 215.512 29.8594C215.486 29.8435 215.456 29.8331 215.426 29.8285C215.404 29.8252 215.381 29.8252 215.359 29.8285H203.629C203.568 29.8208 203.506 29.8371 203.457 29.8742C203.407 29.9112 203.374 29.966 203.364 30.0271C203.361 30.0495 203.361 30.0722 203.364 30.0945V46.7003H198.458V24.9104H215.359Z" fill="white"/>
<path fill-rule="evenodd" clip-rule="evenodd" d="M80.9663 59.4079V60.061H77.5511V59.4079C77.5544 59.3869 77.5535 59.3654 77.5483 59.3447C77.5431 59.324 77.5338 59.3046 77.521 59.2876C77.5081 59.2707 77.492 59.2565 77.4736 59.2459C77.4552 59.2353 77.4348 59.2286 77.4137 59.2262H69.2125C69.1699 59.2203 69.1268 59.2316 69.0923 59.2574C69.0578 59.2832 69.0348 59.3215 69.0282 59.3642V61.495C69.0282 61.596 69.0919 61.6465 69.2125 61.6465H77.3701C78.318 61.6411 79.2292 62.0139 79.9035 62.683C80.5779 63.3521 80.9601 64.2627 80.9663 65.2147V67.3254C80.9672 68.2783 80.5914 69.1926 79.9215 69.8674C79.2516 70.5421 78.3423 70.9222 77.3936 70.9239H69.2125C68.2622 70.9222 67.3513 70.5427 66.6787 69.8684C66.0061 69.1941 65.6266 68.2799 65.623 67.3254V66.6723H69.0416V67.3254C69.0359 67.3678 69.0471 67.4107 69.0729 67.4448C69.0986 67.4789 69.1368 67.5013 69.179 67.5072H77.3835C77.4256 67.512 77.4679 67.5004 77.5016 67.4747C77.5354 67.449 77.5579 67.4112 77.5645 67.3692V65.2383C77.5645 65.134 77.5042 65.0868 77.3835 65.0868H69.2125C68.2622 65.0851 67.3513 64.7056 66.6787 64.0313C66.0061 63.357 65.6266 62.4428 65.623 61.4883V59.4012C65.6275 58.4462 66.0083 57.5317 66.6823 56.858C67.3562 56.1842 68.2684 55.806 69.2192 55.806H77.3768C77.846 55.8034 78.3111 55.8935 78.7456 56.0714C79.1801 56.2493 79.5754 56.5114 79.9091 56.8428C80.2427 57.1741 80.5081 57.5682 80.69 58.0026C80.872 58.4369 80.967 58.903 80.9697 59.3743V59.4012L80.9663 59.4079Z" fill="white"/>
<path fill-rule="evenodd" clip-rule="evenodd" d="M95.3681 55.8128C96.321 55.8137 97.2347 56.1941 97.9088 56.8705C98.583 57.547 98.9625 58.4643 98.9643 59.4214V67.3726C98.9625 68.3297 98.583 69.247 97.9088 69.9235C97.2347 70.5999 96.321 70.9803 95.3681 70.9812H87.0329V77.0001H83.6177V55.8128H95.3681ZM95.5525 67.3759V59.4214C95.5573 59.3792 95.5457 59.3367 95.5201 59.3028C95.4945 59.2689 95.4569 59.2463 95.415 59.2397H87.2139C87.1927 59.2363 87.1711 59.2373 87.1503 59.2424C87.1295 59.2476 87.11 59.2569 87.0928 59.2697C87.0756 59.2826 87.0612 59.2988 87.0503 59.3173C87.0395 59.3358 87.0324 59.3564 87.0295 59.3777C87.0262 59.3921 87.0262 59.407 87.0295 59.4214V67.3726C87.0262 67.3936 87.0272 67.4151 87.0324 67.4358C87.0376 67.4565 87.0468 67.4759 87.0597 67.4929C87.0725 67.5098 87.0886 67.524 87.1071 67.5346C87.1255 67.5452 87.1459 67.5519 87.1669 67.5543H95.3681C95.389 67.5577 95.4104 67.5569 95.431 67.5519C95.4516 67.547 95.471 67.538 95.4881 67.5255C95.5052 67.513 95.5197 67.4972 95.5308 67.479C95.5418 67.4609 95.5492 67.4407 95.5525 67.4197V67.3726V67.3759Z" fill="white"/>
<path fill-rule="evenodd" clip-rule="evenodd" d="M100.854 50.8004H104.256V54.2509H100.854V50.8004ZM100.854 70.924V55.7758H104.256V70.924H100.854Z" fill="white"/>
<path fill-rule="evenodd" clip-rule="evenodd" d="M118.731 55.8128C119.203 55.8115 119.67 55.9034 120.106 56.0834C120.542 56.2633 120.938 56.5278 121.272 56.8616C121.607 57.1955 121.872 57.5922 122.054 58.0291C122.235 58.466 122.33 58.9345 122.331 59.408V70.924H118.912V59.408C118.916 59.3869 118.915 59.3654 118.909 59.3447C118.904 59.3241 118.895 59.3047 118.882 59.2877C118.869 59.2707 118.853 59.2565 118.835 59.2459C118.816 59.2354 118.796 59.2287 118.775 59.2262H110.574C110.553 59.2229 110.531 59.2239 110.511 59.2291C110.49 59.2343 110.471 59.2436 110.454 59.2565C110.437 59.2694 110.423 59.2856 110.412 59.3041C110.402 59.3226 110.395 59.343 110.393 59.3642C110.389 59.3786 110.389 59.3936 110.393 59.408V70.924H106.978V55.8128H118.731Z" fill="white"/>
<path fill-rule="evenodd" clip-rule="evenodd" d="M136.119 55.8128C137.069 55.8128 137.982 56.191 138.656 56.8648C139.33 57.5385 139.71 58.4529 139.715 59.408V65.0869H127.777V67.3254C127.773 67.346 127.774 67.367 127.779 67.3873C127.784 67.4076 127.792 67.4267 127.804 67.4436C127.817 67.4605 127.832 67.4748 127.85 67.4857C127.867 67.4966 127.887 67.504 127.907 67.5072C127.924 67.5106 127.941 67.5106 127.958 67.5072H139.715V70.924H127.958C127.007 70.9222 126.096 70.5427 125.424 69.8685C124.751 69.1942 124.372 68.2799 124.368 67.3254V59.408C124.371 58.4524 124.751 57.5369 125.425 56.8628C126.1 56.1887 127.013 55.811 127.964 55.8128H136.119ZM127.777 61.6499H136.3V59.408C136.303 59.3872 136.302 59.3659 136.297 59.3454C136.292 59.325 136.283 59.3057 136.271 59.2888C136.258 59.2718 136.242 59.2576 136.224 59.2468C136.206 59.2361 136.186 59.2291 136.166 59.2262H127.958C127.915 59.2204 127.873 59.2317 127.839 59.2576C127.805 59.2835 127.782 59.3218 127.777 59.3642C127.773 59.3786 127.773 59.3936 127.777 59.408V61.6499Z" fill="white"/>
</svg>
