<svg xmlns="http://www.w3.org/2000/svg" viewBox="0 0 658.01 228.74"><defs><style>.cls-1{fill:#333;}.cls-1,.cls-2{fill-rule:evenodd;}.cls-2{fill:#e65025;}</style></defs><title>octagonspine-logo</title><g id="Layer_2" data-name="Layer 2"><g id="Layer_1-2" data-name="Layer 1"><path class="cls-1" d="M123.61,19.4H107l-.45,1.46a79.41,79.41,0,0,0-2.76,19.2H115l39.1,39V134.3l-29.1,29a71.65,71.65,0,0,1-4.56,12.09A72.85,72.85,0,0,1,107.51,194h16.08l51.23-51.14V70.54L123.61,19.4Z"/><path class="cls-1" d="M65.64,173.34H59.85l-39.14-39V79.09L45.46,54.41A88.19,88.19,0,0,1,49.64,38,82.75,82.75,0,0,1,59.42,19.4H51.27L0,70.54v72.32L51.27,194H56a73,73,0,0,0,4.85-7.92,53.38,53.38,0,0,0,4.78-12.74Z"/><path class="cls-2" d="M115.94,135.92a29.33,29.33,0,0,0-.32-3.1l-.37-2.66c-.14-1-.27-2-.46-2.92s-.45-2.16-.72-3.29l-.52-2.26c-.22-.94-.42-1.87-.72-2.77l-1.41-4.52c-.48-1.53-.9-2.78-1.36-4l-3.35-8.3A205.08,205.08,0,0,1,96.8,74.77c-1.16-4-2.14-8.31-3.17-13.8a131.65,131.65,0,0,1-1.57-14C92,44.58,92,42.28,92,40A91.81,91.81,0,0,1,94.8,19.35c.14-.54.27-1.1.42-1.64A97.58,97.58,0,0,1,102,0c-1.76.71-3.55,1.51-5.39,2.41A76.85,76.85,0,0,0,80.75,12.88a69.4,69.4,0,0,0-6.59,6.47A70.92,70.92,0,0,0,61.26,40c-.27.65-.56,1.28-.8,1.93a77.51,77.51,0,0,0-4,16.73,82.21,82.21,0,0,0-.18,17,108.64,108.64,0,0,0,8.9,33.67l3,6.94c.71,1.5,1.24,2.91,1.75,4.28.3.81.6,1.62.94,2.42.55,1.36,1,2.67,1.44,4,.29.9.58,1.78.93,2.67l.15.45,1.91,6.45c2.65,10.15,3.72,19,3.34,27.18a72.21,72.21,0,0,1-1.18,9.62,65,65,0,0,1-6.37,18.15c-.45.84-.91,1.68-1.39,2.52a90,90,0,0,1-7.6,11.23c-.45.56-.9,1.11-1.36,1.64q2.46-.54,5.06-1.27a79.78,79.78,0,0,0,18.54-8c1.9-1.12,3.72-2.36,5.49-3.65a64.65,64.65,0,0,0,18.54-20.67c.54-1,1.1-2,1.58-3,5-10.12,7-21.68,6-34.41Z"/><path class="cls-1" d="M213.26,124.11H263.7v14.62H213.26a15.46,15.46,0,0,1-15.43-15.41V89.4A15.45,15.45,0,0,1,213.26,74h50.21V88.61H213.26a.7.7,0,0,0-.78.59.67.67,0,0,0,0,.2v33.92a.71.71,0,0,0,.58.79.67.67,0,0,0,.2,0Z"/><path class="cls-1" d="M323,88.61H297.74v34.71a.69.69,0,0,0,.58.79.67.67,0,0,0,.2,0H323v14.62H298.54a15.34,15.34,0,0,1-15.44-15.24V52.79h14.65V74H323V88.61Z"/><path class="cls-1" d="M391.28,74A15.45,15.45,0,0,1,406.72,89.4v49.33H356.29a15.46,15.46,0,0,1-15.43-15.41V99h51.21V89.4a.71.71,0,0,0-.6-.79.61.61,0,0,0-.19,0H340.85V74Zm.79,50.12V113.74H355.48v9.6a.7.7,0,0,0,.6.78h36Z"/><path class="cls-1" d="M490.4,149.23a15,15,0,0,1-4.47,10.92,14.64,14.64,0,0,1-10.83,4.52H435.37V149.9h39.7a.58.58,0,0,0,.67-.5.49.49,0,0,0,0-.17v-10.3H440a15.46,15.46,0,0,1-15.43-15.45v-34A15.47,15.47,0,0,1,440,74h35.11a14.72,14.72,0,0,1,10.84,4.52,15,15,0,0,1,4.47,10.92Zm-50.43-25h35.12c.45,0,.66-.27.66-.79v-34c0-.53-.22-.79-.66-.79H440a.68.68,0,0,0-.78.59.67.67,0,0,0,0,.2v34a.69.69,0,0,0,.58.79.67.67,0,0,0,.2,0Z"/><path class="cls-1" d="M523.88,74h35A15.44,15.44,0,0,1,574.32,89.4v33.92a15.45,15.45,0,0,1-15.43,15.41h-35a15.45,15.45,0,0,1-15.43-15.41V89.4A15.45,15.45,0,0,1,523.88,74Zm35,14.62h-35a.7.7,0,0,0-.78.59.67.67,0,0,0,0,.2v33.92a.71.71,0,0,0,.59.79.61.61,0,0,0,.19,0h35a.69.69,0,0,0,.78-.59.67.67,0,0,0,0-.2V89.4a.7.7,0,0,0-.58-.79.67.67,0,0,0-.2,0Z"/><path class="cls-1" d="M642.57,74A15.45,15.45,0,0,1,658,89.4v49.33H643.35V89.4a.69.69,0,0,0-.58-.79.67.67,0,0,0-.2,0h-35a.71.71,0,0,0-.79.59.67.67,0,0,0,0,.2v49.33H592.14V74Z"/><path class="cls-2" d="M241.58,176.48v1.94H231.39v-1.94a.47.47,0,0,0-.41-.54H206.51a.49.49,0,0,0-.55.41v6.33c0,.3.19.45.55.45h24.34a10.67,10.67,0,0,1,10.73,10.6V200a10.68,10.68,0,0,1-10.66,10.69H206.51A10.73,10.73,0,0,1,195.8,200v-1.94H206V200a.48.48,0,0,0,.41.54h24.48a.49.49,0,0,0,.54-.41v-6.33c0-.31-.18-.45-.54-.45H206.51a10.73,10.73,0,0,1-10.71-10.69v-6.2a10.73,10.73,0,0,1,10.73-10.68h24.34a10.66,10.66,0,0,1,10.72,10.6v.08Z"/><path class="cls-2" d="M284.55,165.8a10.74,10.74,0,0,1,10.73,10.72v23.62a10.74,10.74,0,0,1-10.73,10.72H259.68v17.88H249.49V165.8Zm.55,34.35V176.52a.49.49,0,0,0-.41-.54H260.22a.48.48,0,0,0-.55.41.29.29,0,0,0,0,.13v23.62a.47.47,0,0,0,.41.54h24.47a.48.48,0,0,0,.55-.4v-.14Z"/><path class="cls-2" d="M300.92,150.91h10.15v10.25H300.92V150.91Zm0,59.78v-45h10.15v45Z"/><path class="cls-2" d="M354.26,165.8A10.71,10.71,0,0,1,365,176.48v34.21H354.8V176.48a.47.47,0,0,0-.41-.54H329.92a.47.47,0,0,0-.54.41.28.28,0,0,0,0,.13v34.21H319.19V165.8Z"/><path class="cls-2" d="M406.14,165.8a10.73,10.73,0,0,1,10.73,10.68v16.87H381.25V200a.47.47,0,0,0,.39.54.38.38,0,0,0,.15,0h35.08v10.15H381.79A10.73,10.73,0,0,1,371.08,200V176.48a10.71,10.71,0,0,1,10.73-10.68Zm-24.89,17.34h25.43v-6.66a.47.47,0,0,0-.4-.54H381.79a.48.48,0,0,0-.54.41.29.29,0,0,0,0,.13Z"/></g></g></svg>