<svg width="52" height="53" viewBox="0 0 52 53" fill="none" xmlns="http://www.w3.org/2000/svg">
<path d="M50.9984 38.5089V46.0509C51.0013 46.751 50.8579 47.4441 50.5774 48.0856C50.2969 48.7271 49.8855 49.3029 49.3696 49.7763C48.8537 50.2496 48.2446 50.61 47.5813 50.8343C46.9181 51.0586 46.2153 51.1419 45.518 51.0789C37.782 50.2383 30.3511 47.5948 23.8223 43.3609C17.748 39.5011 12.5982 34.3512 8.73834 28.277C4.48965 21.7185 1.8456 14.2515 1.02041 6.48073C0.957582 5.78553 1.0402 5.08487 1.26301 4.42335C1.48581 3.76183 1.84391 3.15395 2.31452 2.63841C2.78513 2.12287 3.35792 1.71097 3.99644 1.42893C4.63496 1.1469 5.32521 1.0009 6.02324 1.00024H13.5652C14.7852 0.988236 15.968 1.42028 16.8931 2.21584C17.8182 3.0114 18.4224 4.1162 18.5932 5.3243C18.9115 7.73789 19.5018 10.1077 20.353 12.3886C20.6912 13.2884 20.7644 14.2663 20.5639 15.2065C20.3634 16.1466 19.8976 17.0096 19.2217 17.6931L16.0289 20.8859C19.6077 27.1798 24.8189 32.391 31.1128 35.9698L34.3056 32.777C34.9891 32.1011 35.8521 31.6353 36.7922 31.4348C37.7324 31.2343 38.7103 31.3075 39.6101 31.6457C41.891 32.4968 44.2608 33.0872 46.6744 33.4055C47.8956 33.5778 49.0109 34.1929 49.8082 35.1339C50.6054 36.0748 51.029 37.276 50.9984 38.5089Z" stroke="white" stroke-width="2" stroke-linecap="round" stroke-linejoin="round"/>
</svg>
