<svg width="54" height="54" viewBox="0 0 54 54" fill="none" xmlns="http://www.w3.org/2000/svg">
<path d="M51.9984 39.5089V47.0509C52.0013 47.751 51.8579 48.4441 51.5774 49.0856C51.2969 49.7271 50.8855 50.3029 50.3696 50.7763C49.8537 51.2496 49.2446 51.61 48.5813 51.8343C47.9181 52.0586 47.2153 52.1419 46.518 52.0789C38.782 51.2383 31.3511 48.5948 24.8223 44.3609C18.748 40.5011 13.5982 35.3512 9.73834 29.277C5.48965 22.7185 2.8456 15.2515 2.02041 7.48073C1.95758 6.78553 2.0402 6.08487 2.26301 5.42335C2.48581 4.76183 2.84391 4.15395 3.31452 3.63841C3.78513 3.12287 4.35792 2.71097 4.99644 2.42893C5.63496 2.1469 6.32521 2.0009 7.02324 2.00024H14.5652C15.7852 1.98824 16.968 2.42028 17.8931 3.21584C18.8182 4.0114 19.4224 5.1162 19.5932 6.3243C19.9115 8.73789 20.5018 11.1077 21.353 13.3886C21.6912 14.2884 21.7644 15.2663 21.5639 16.2065C21.3634 17.1466 20.8976 18.0096 20.2217 18.6931L17.0289 21.8859C20.6077 28.1798 25.8189 33.391 32.1128 36.9698L35.3056 33.777C35.9891 33.1011 36.8521 32.6353 37.7922 32.4348C38.7324 32.2343 39.7103 32.3075 40.6101 32.6457C42.891 33.4968 45.2608 34.0872 47.6744 34.4055C48.8956 34.5778 50.0109 35.1929 50.8082 36.1339C51.6054 37.0748 52.029 38.276 51.9984 39.5089Z" stroke="white" stroke-width="3" stroke-linecap="round" stroke-linejoin="round"/>
</svg>
